<svg width="400" height="400" viewBox="0 0 400 400" fill="none" xmlns="http://www.w3.org/2000/svg">
<rect width="400" height="400" rx="200" fill="#171717"/>
<path fill-rule="evenodd" clip-rule="evenodd" d="M296.872 243.076V267.692H249.029V267.665L232.748 243.076H218.473L242.918 280H309.09V243.076H296.872Z" fill="#E6FC8D"/>
<path fill-rule="evenodd" clip-rule="evenodd" d="M90.911 243.076V280H157.263L181.708 243.076H90.911Z" fill="#E6FC8D"/>
<path fill-rule="evenodd" clip-rule="evenodd" d="M263.869 144.619L206.83 230.776H309.09V144.619H263.869Z" fill="#E6FC8D"/>
<path fill-rule="evenodd" clip-rule="evenodd" d="M248.932 120L200.091 193.76L151.25 120L151.151 120.198V120H90.911V206.21H103.129V132.362L145.138 132.308L192.955 204.536L183.715 218.492H90.911V230.8L189.856 230.772L255.043 132.308H309.091V120H248.932Z" fill="#E6FC8D"/>
</svg>
